<?xml version="1.0" encoding="UTF-8" standalone="no"?>
<svg
   xmlns:dc="http://purl.org/dc/elements/1.1/"
   xmlns:cc="http://creativecommons.org/ns#"
   xmlns:rdf="http://www.w3.org/1999/02/22-rdf-syntax-ns#"
   xmlns:svg="http://www.w3.org/2000/svg"
   xmlns="http://www.w3.org/2000/svg"
   xmlns:sodipodi="http://sodipodi.sourceforge.net/DTD/sodipodi-0.dtd"
   xmlns:inkscape="http://www.inkscape.org/namespaces/inkscape"
   version="1.1"
   id="Capa_1"
   x="0px"
   y="0px"
   viewBox="0 0 512 512"
   style="enable-background:new 0 0 512 512;"
   xml:space="preserve"
   width="512"
   height="512"
   inkscape:version="0.91 r13725"
   sodipodi:docname="seat-shtender-left.svg"><metadata
     id="metadata3446"><rdf:RDF><cc:Work
         rdf:about=""><dc:format>image/svg+xml</dc:format><dc:type
           rdf:resource="http://purl.org/dc/dcmitype/StillImage" /><dc:title></dc:title></cc:Work></rdf:RDF></metadata><defs
     id="defs3444" /><sodipodi:namedview
     pagecolor="#ffffff"
     bordercolor="#666666"
     borderopacity="1"
     objecttolerance="10"
     gridtolerance="10"
     guidetolerance="10"
     inkscape:pageopacity="0"
     inkscape:pageshadow="2"
     inkscape:window-width="1440"
     inkscape:window-height="851"
     id="namedview3442"
     showgrid="false"
     inkscape:zoom="1"
     inkscape:cx="107.85392"
     inkscape:cy="262.89846"
     inkscape:window-x="0"
     inkscape:window-y="1"
     inkscape:window-maximized="1"
     inkscape:current-layer="Capa_1" /><g
     id="g3339"
     transform="matrix(0,1,-1,0,510.36849,-2.1505525)"><g
       id="g3434"
       transform="matrix(-1,0,0,-0.73582265,512,515.58502)"><g
         id="g3436"><path
           inkscape:connector-curvature="0"
           id="path3438"
           class=""
           data-original="#B48348"
           d="m 429.712,457.145 0,-356.946 c -117.33,-11.694 -231.717,-11.685 -347.429,0 l 0,356.946 c 58.853,17.902 116.571,27.264 173.714,27.429 l 0,0 c 57.135,-0.165 114.863,-9.527 173.715,-27.429"
           style="fill:#575e61" /><path
           inkscape:connector-curvature="0"
           id="path3440"
           class=""
           data-original="#D8A251"
           d="M 441.061,19.832 C 318.035,5.578 193.957,5.578 70.94,19.832 30.592,24.157 0,58.195 0,98.771 l 0,358.373 c 0,25.253 20.471,45.714 45.714,45.714 25.243,0 45.714,-20.462 45.714,-45.714 l 0,-347.803 c 109.623,-11.685 217.993,-11.694 329.143,0 l 0,347.803 c 0,25.253 20.471,45.714 45.714,45.714 25.243,0 45.714,-20.462 45.714,-45.714 l 0,-358.373 C 512,58.195 481.408,24.157 441.061,19.832"
           style="fill:#d6a16a" /></g></g><rect
       y="-0.64055604"
       x="1.149085"
       height="86.779663"
       width="511.36896"
       id="rect3448"
       style="fill:#d6a16a;fill-opacity:1" /><rect
       y="82.013832"
       x="0.97960103"
       height="4.2103076"
       width="510.04694"
       id="rect3450"
       style="fill:#af8457;fill-opacity:1" /><path
       inkscape:connector-curvature="0"
       id="path3452"
       d="m 2.6033898,46.210169 0,-42.3050843 253.8305102,0 253.83051,0 0,42.3050843 0,42.305085 -253.83051,0 -253.8305102,0 0,-42.305085 z"
       style="fill:#806600;fill-opacity:0" /></g></svg>