<?xml version="1.0" encoding="UTF-8" standalone="no"?>
<svg
   xmlns:dc="http://purl.org/dc/elements/1.1/"
   xmlns:cc="http://creativecommons.org/ns#"
   xmlns:rdf="http://www.w3.org/1999/02/22-rdf-syntax-ns#"
   xmlns:svg="http://www.w3.org/2000/svg"
   xmlns="http://www.w3.org/2000/svg"
   xmlns:sodipodi="http://sodipodi.sourceforge.net/DTD/sodipodi-0.dtd"
   xmlns:inkscape="http://www.inkscape.org/namespaces/inkscape"
   version="1.1"
   id="Capa_1"
   x="0px"
   y="0px"
   viewBox="0 0 512 512"
   style="enable-background:new 0 0 512 512;"
   xml:space="preserve"
   width="512"
   height="512"
   inkscape:version="0.91 r13725"
   sodipodi:docname="seat-right.svg"><metadata
     id="metadata15"><rdf:RDF><cc:Work
         rdf:about=""><dc:format>image/svg+xml</dc:format><dc:type
           rdf:resource="http://purl.org/dc/dcmitype/StillImage" /><dc:title></dc:title></cc:Work></rdf:RDF></metadata><defs
     id="defs13" /><sodipodi:namedview
     pagecolor="#ffffff"
     bordercolor="#666666"
     borderopacity="1"
     objecttolerance="10"
     gridtolerance="10"
     guidetolerance="10"
     inkscape:pageopacity="0"
     inkscape:pageshadow="2"
     inkscape:window-width="1089"
     inkscape:window-height="637"
     id="namedview11"
     showgrid="false"
     inkscape:zoom="0.4609375"
     inkscape:cx="256"
     inkscape:cy="256"
     inkscape:window-x="0"
     inkscape:window-y="0"
     inkscape:window-maximized="0"
     inkscape:current-layer="Capa_1" /><g
     id="g3343"
     transform="matrix(0,-1,1,0,2.4998774e-4,512.00075)"><g
       id="g3"
       transform="matrix(-1,0,0,-1,512,512)"><g
         id="g5"><path
           id="path7"
           class=""
           data-original="#B48348"
           d="m 429.712,457.145 0,-356.946 c -117.33,-11.694 -231.717,-11.685 -347.429,0 l 0,356.946 c 58.853,17.902 116.571,27.264 173.714,27.429 l 0,0 c 57.135,-0.165 114.863,-9.527 173.715,-27.429"
           style="fill:#575e61"
           inkscape:connector-curvature="0" /><path
           id="path9"
           class=""
           data-original="#D8A251"
           d="M 441.061,19.832 C 318.035,5.578 193.957,5.578 70.94,19.832 30.592,24.157 0,58.195 0,98.771 l 0,358.373 c 0,25.253 20.471,45.714 45.714,45.714 25.243,0 45.714,-20.462 45.714,-45.714 l 0,-347.803 c 109.623,-11.685 217.993,-11.694 329.143,0 l 0,347.803 c 0,25.253 20.471,45.714 45.714,45.714 25.243,0 45.714,-20.462 45.714,-45.714 l 0,-358.373 C 512,58.195 481.408,24.157 441.061,19.832"
           style="fill:#d6a16a"
           inkscape:connector-curvature="0" /></g></g></g></svg>